# xmcd
#
# Track frame offsets:
#	150
#	18226
#	38903
#	57971
#	77643
#	102401
#	118639
#	143701
# Disc length: 2183 seconds
# Revision: 1
# Processed by: cddbd v1.5.2PL0 Copyright (c) Steve Scherf et al.
#
# Submitted via: libkcddb 0.31
#
DISCID=61088508
DTITLE=Six Notes - Six Notes
DYEAR=2008
DGENRE=Alternative
TTITLE0=Go West
TTITLE1=Dixie Highway West
TTITLE2=Bodie's Prayer
TTITLE3=Alan Ruckus
TTITLE4=Goodbye Old Alliance
TTITLE5=Boomtown
TTITLE6=Semolina
TTITLE7=The Road To Carson
EXTD=Composed and performed by Donald Poland, Steve Baxter and Elizabeth Williams
EXTT0=
EXTT1=
EXTT2=
EXTT3=
EXTT4=
EXTT5=
EXTT6=
EXTT7=
PLAYORDER=
